<svg width="530" height="542" viewBox="0 0 530 542" fill="none" xmlns="http://www.w3.org/2000/svg">
<g filter="url(#filter0_d_1432_5952)">
<path d="M304.072 354.135H242.722V327.885C242.722 323.427 243.92 319.168 246.248 315.209C248.378 311.582 251.106 308.056 254.4 304.662C257.527 301.435 260.887 298.208 264.447 295.114C267.808 292.153 271.035 289.025 273.996 285.798C276.857 282.704 279.219 279.477 281.049 276.183C282.746 273.155 283.544 269.895 283.544 266.235C283.544 263.806 283.145 261.444 282.38 259.215C281.615 257.053 280.517 255.156 279.086 253.526C277.655 251.929 275.859 250.598 273.763 249.6C271.733 248.635 269.371 248.136 266.676 248.136C263.083 248.136 260.222 248.735 258.159 249.933C256.063 251.164 254.466 252.661 253.302 254.557C252.071 256.587 251.239 258.949 250.806 261.611C250.341 264.572 250.075 267.599 250.075 270.66V274.885C250.075 276.083 250.174 277.314 250.341 278.545L250.973 282.937H185.264L184.932 279.477C184.732 277.447 184.532 275.484 184.333 273.588C184.1 271.592 184 269.462 184 267.267C184 256.454 186.329 246.572 190.887 237.889C195.412 229.239 201.8 221.786 209.818 215.665C217.769 209.643 227.318 204.952 238.197 201.758C248.977 198.597 260.854 197 273.563 197C285.84 197 297.252 198.564 307.432 201.691C317.713 204.818 326.662 209.376 334.082 215.232C341.567 221.121 347.423 228.407 351.548 236.791C355.674 245.208 357.77 254.69 357.77 264.938C357.77 272.623 356.306 279.61 353.412 285.632C350.617 291.454 347.057 296.81 342.832 301.468C338.706 306.093 334.181 310.252 329.391 313.845C324.766 317.338 320.474 320.532 316.448 323.46C312.656 326.254 309.428 328.916 306.933 331.445C305.037 333.341 304.072 335.171 304.072 336.868V354.135ZM250.374 346.449H296.387V336.934C296.387 333.141 298.117 329.482 301.51 326.088C304.305 323.293 307.798 320.366 311.924 317.338C315.883 314.444 320.175 311.25 324.766 307.79C329.158 304.496 333.283 300.67 337.109 296.411C340.835 292.252 343.996 287.528 346.491 282.338C348.887 277.347 350.085 271.525 350.085 264.971C350.085 255.888 348.255 247.571 344.662 240.185C341.035 232.832 335.878 226.444 329.324 221.254C322.67 215.997 314.552 211.905 305.203 209.044C295.754 206.149 285.108 204.685 273.563 204.685C261.619 204.685 250.44 206.183 240.36 209.144C230.379 212.071 221.662 216.33 214.442 221.786C207.322 227.209 201.666 233.797 197.641 241.449C193.648 249.035 191.652 257.718 191.652 267.267C191.652 269.163 191.752 271.026 191.952 272.756C192.051 273.588 192.118 274.42 192.218 275.251H242.456C242.456 275.118 242.456 274.985 242.456 274.852V270.627C242.456 267.167 242.722 263.707 243.287 260.346C243.886 256.687 245.051 253.393 246.781 250.532C248.577 247.537 251.139 245.075 254.366 243.212C257.594 241.349 261.752 240.384 266.71 240.384C270.536 240.384 274.062 241.116 277.123 242.613C280.117 244.044 282.713 245.974 284.842 248.336C286.971 250.698 288.601 253.493 289.666 256.62C290.731 259.681 291.263 262.875 291.263 266.169C291.263 271.093 290.099 275.717 287.803 279.843C285.674 283.669 282.945 287.395 279.685 290.922C276.558 294.315 273.164 297.642 269.604 300.77C266.211 303.764 262.983 306.825 260.022 309.919C257.161 312.847 254.799 315.907 252.969 319.035C251.306 321.83 250.507 324.724 250.507 327.818V346.449H250.374Z" fill="#2CB7B3"/>
<path d="M305.802 428.327H243.887V370.005H305.802V428.327ZM251.539 420.642H298.15V377.657H251.539V420.642Z" fill="#2CB7B3"/>
</g>
<g filter="url(#filter1_d_1432_5952)">
<path d="M472.072 459.135H410.722V432.885C410.722 428.427 411.92 424.168 414.248 420.209C416.378 416.582 419.106 413.056 422.4 409.662C425.527 406.435 428.887 403.208 432.447 400.114C435.808 397.153 439.035 394.025 441.996 390.798C444.857 387.704 447.219 384.477 449.049 381.183C450.746 378.155 451.544 374.895 451.544 371.235C451.544 368.806 451.145 366.444 450.38 364.215C449.615 362.053 448.517 360.156 447.086 358.526C445.655 356.929 443.859 355.598 441.763 354.6C439.733 353.635 437.371 353.136 434.676 353.136C431.083 353.136 428.222 353.735 426.159 354.933C424.063 356.164 422.466 357.661 421.302 359.557C420.071 361.587 419.239 363.949 418.806 366.611C418.341 369.572 418.075 372.599 418.075 375.66V379.885C418.075 381.083 418.174 382.314 418.341 383.545L418.973 387.937H353.264L352.932 384.477C352.732 382.447 352.532 380.484 352.333 378.588C352.1 376.592 352 374.462 352 372.267C352 361.454 354.329 351.572 358.887 342.889C363.412 334.239 369.8 326.786 377.818 320.665C385.769 314.643 395.318 309.952 406.197 306.758C416.977 303.597 428.854 302 441.563 302C453.84 302 465.252 303.564 475.432 306.691C485.713 309.818 494.662 314.376 502.082 320.232C509.567 326.121 515.423 333.407 519.548 341.791C523.674 350.208 525.77 359.69 525.77 369.938C525.77 377.623 524.306 384.61 521.412 390.632C518.617 396.454 515.057 401.81 510.832 406.468C506.706 411.093 502.181 415.252 497.391 418.845C492.766 422.338 488.474 425.532 484.448 428.46C480.656 431.254 477.428 433.916 474.933 436.445C473.037 438.341 472.072 440.171 472.072 441.868V459.135ZM418.374 451.449H464.387V441.934C464.387 438.141 466.117 434.482 469.51 431.088C472.305 428.293 475.798 425.366 479.924 422.338C483.883 419.444 488.175 416.25 492.766 412.79C497.158 409.496 501.283 405.67 505.109 401.411C508.835 397.252 511.996 392.528 514.491 387.338C516.887 382.347 518.085 376.525 518.085 369.971C518.085 360.888 516.255 352.571 512.662 345.185C509.035 337.832 503.878 331.444 497.324 326.254C490.67 320.997 482.552 316.905 473.203 314.044C463.754 311.149 453.108 309.685 441.563 309.685C429.619 309.685 418.44 311.183 408.36 314.144C398.379 317.071 389.662 321.33 382.442 326.786C375.322 332.209 369.666 338.797 365.641 346.449C361.648 354.035 359.652 362.718 359.652 372.267C359.652 374.163 359.752 376.026 359.952 377.756C360.051 378.588 360.118 379.42 360.218 380.251H410.456C410.456 380.118 410.456 379.985 410.456 379.852V375.627C410.456 372.167 410.722 368.707 411.287 365.346C411.886 361.687 413.051 358.393 414.781 355.532C416.577 352.537 419.139 350.075 422.366 348.212C425.594 346.349 429.752 345.384 434.71 345.384C438.536 345.384 442.062 346.116 445.123 347.613C448.117 349.044 450.713 350.974 452.842 353.336C454.971 355.698 456.601 358.493 457.666 361.62C458.731 364.681 459.263 367.875 459.263 371.169C459.263 376.093 458.099 380.717 455.803 384.843C453.674 388.669 450.945 392.395 447.685 395.922C444.558 399.315 441.164 402.642 437.604 405.77C434.211 408.764 430.983 411.825 428.022 414.919C425.161 417.847 422.799 420.907 420.969 424.035C419.306 426.83 418.507 429.724 418.507 432.818V451.449H418.374Z" fill="#2CB7B3"/>
<path d="M473.802 533.327H411.887V475.005H473.802V533.327ZM419.539 525.642H466.15V482.657H419.539V525.642Z" fill="#2CB7B3"/>
</g>
<g filter="url(#filter2_d_1432_5952)">
<path d="M467.719 234.327H426.987V216.898C426.987 213.938 427.782 211.111 429.329 208.482C430.742 206.075 432.554 203.733 434.74 201.48C436.817 199.338 439.048 197.195 441.411 195.141C443.642 193.175 445.785 191.098 447.751 188.956C449.651 186.901 451.219 184.759 452.434 182.572C453.56 180.562 454.091 178.397 454.091 175.967C454.091 174.355 453.825 172.787 453.317 171.307C452.809 169.871 452.08 168.612 451.131 167.529C450.181 166.469 448.988 165.585 447.596 164.923C446.249 164.282 444.681 163.951 442.891 163.951C440.506 163.951 438.606 164.349 437.237 165.144C435.845 165.961 434.785 166.955 434.012 168.214C433.194 169.562 432.642 171.13 432.355 172.897C432.046 174.863 431.869 176.873 431.869 178.905V181.711C431.869 182.506 431.935 183.323 432.046 184.14L432.465 187.056H388.839L388.618 184.759C388.486 183.411 388.353 182.108 388.221 180.849C388.066 179.524 388 178.11 388 176.652C388 169.473 389.546 162.913 392.572 157.147C395.577 151.404 399.818 146.456 405.141 142.392C410.42 138.394 416.76 135.279 423.983 133.159C431.14 131.06 439.026 130 447.464 130C455.615 130 463.191 131.038 469.95 133.115C476.776 135.191 482.718 138.217 487.644 142.105C492.614 146.015 496.502 150.852 499.241 156.419C501.98 162.007 503.371 168.302 503.371 175.106C503.371 180.208 502.399 184.847 500.478 188.845C498.622 192.711 496.259 196.267 493.453 199.36C490.714 202.43 487.71 205.191 484.529 207.577C481.459 209.896 478.609 212.017 475.937 213.961C473.418 215.816 471.276 217.583 469.619 219.262C468.36 220.521 467.719 221.736 467.719 222.862V234.327ZM432.068 229.224H462.617V222.907C462.617 220.388 463.766 217.959 466.019 215.706C467.874 213.85 470.193 211.906 472.933 209.896C475.561 207.974 478.411 205.854 481.459 203.557C484.375 201.37 487.114 198.83 489.654 196.002C492.128 193.241 494.226 190.104 495.883 186.658C497.473 183.345 498.269 179.48 498.269 175.128C498.269 169.098 497.054 163.575 494.668 158.672C492.26 153.79 488.837 149.549 484.485 146.103C480.067 142.613 474.678 139.896 468.471 137.996C462.197 136.074 455.129 135.103 447.464 135.103C439.534 135.103 432.112 136.097 425.419 138.062C418.792 140.006 413.005 142.834 408.212 146.456C403.484 150.057 399.729 154.431 397.057 159.511C394.406 164.547 393.08 170.313 393.08 176.652C393.08 177.911 393.147 179.148 393.279 180.297C393.346 180.849 393.39 181.401 393.456 181.954H426.811C426.811 181.865 426.811 181.777 426.811 181.688V178.883C426.811 176.586 426.987 174.289 427.363 172.058C427.76 169.628 428.533 167.441 429.682 165.541C430.875 163.553 432.576 161.919 434.718 160.682C436.861 159.445 439.622 158.804 442.913 158.804C445.454 158.804 447.795 159.29 449.827 160.284C451.815 161.234 453.538 162.515 454.952 164.083C456.366 165.652 457.448 167.507 458.155 169.584C458.862 171.616 459.215 173.736 459.215 175.923C459.215 179.192 458.442 182.263 456.918 185.002C455.504 187.542 453.693 190.016 451.528 192.357C449.452 194.611 447.199 196.819 444.835 198.896C442.582 200.884 440.439 202.916 438.474 204.97C436.574 206.914 435.006 208.946 433.791 211.023C432.686 212.878 432.156 214.8 432.156 216.854V229.224H432.068Z" fill="#2CB7B3"/>
<path d="M468.869 283.585H427.762V244.863H468.869V283.585ZM432.842 278.483H463.789V249.944H432.842V278.483Z" fill="#2CB7B3"/>
</g>
<g filter="url(#filter3_d_1432_5952)">
<line x1="447.5" y1="130" x2="447.5" y2="1.09278e-07" stroke="#2CB7B3" stroke-width="5"/>
</g>
<g filter="url(#filter4_d_1432_5952)">
<line x1="419" y1="506.5" x2="2.18557e-07" y2="506.5" stroke="#2CB7B3" stroke-width="5"/>
</g>
<defs>
<filter id="filter0_d_1432_5952" x="180" y="197" width="181.77" height="239.327" filterUnits="userSpaceOnUse" color-interpolation-filters="sRGB">
<feFlood flood-opacity="0" result="BackgroundImageFix"/>
<feColorMatrix in="SourceAlpha" type="matrix" values="0 0 0 0 0 0 0 0 0 0 0 0 0 0 0 0 0 0 127 0" result="hardAlpha"/>
<feOffset dy="4"/>
<feGaussianBlur stdDeviation="2"/>
<feComposite in2="hardAlpha" operator="out"/>
<feColorMatrix type="matrix" values="0 0 0 0 0.141176 0 0 0 0 0.141176 0 0 0 0 0.14902 0 0 0 1 0"/>
<feBlend mode="normal" in2="BackgroundImageFix" result="effect1_dropShadow_1432_5952"/>
<feBlend mode="normal" in="SourceGraphic" in2="effect1_dropShadow_1432_5952" result="shape"/>
</filter>
<filter id="filter1_d_1432_5952" x="348" y="302" width="181.77" height="239.327" filterUnits="userSpaceOnUse" color-interpolation-filters="sRGB">
<feFlood flood-opacity="0" result="BackgroundImageFix"/>
<feColorMatrix in="SourceAlpha" type="matrix" values="0 0 0 0 0 0 0 0 0 0 0 0 0 0 0 0 0 0 127 0" result="hardAlpha"/>
<feOffset dy="4"/>
<feGaussianBlur stdDeviation="2"/>
<feComposite in2="hardAlpha" operator="out"/>
<feColorMatrix type="matrix" values="0 0 0 0 0.141176 0 0 0 0 0.141176 0 0 0 0 0.14902 0 0 0 1 0"/>
<feBlend mode="normal" in2="BackgroundImageFix" result="effect1_dropShadow_1432_5952"/>
<feBlend mode="normal" in="SourceGraphic" in2="effect1_dropShadow_1432_5952" result="shape"/>
</filter>
<filter id="filter2_d_1432_5952" x="384" y="130" width="123.371" height="161.585" filterUnits="userSpaceOnUse" color-interpolation-filters="sRGB">
<feFlood flood-opacity="0" result="BackgroundImageFix"/>
<feColorMatrix in="SourceAlpha" type="matrix" values="0 0 0 0 0 0 0 0 0 0 0 0 0 0 0 0 0 0 127 0" result="hardAlpha"/>
<feOffset dy="4"/>
<feGaussianBlur stdDeviation="2"/>
<feComposite in2="hardAlpha" operator="out"/>
<feColorMatrix type="matrix" values="0 0 0 0 0.141176 0 0 0 0 0.141176 0 0 0 0 0.14902 0 0 0 1 0"/>
<feBlend mode="normal" in2="BackgroundImageFix" result="effect1_dropShadow_1432_5952"/>
<feBlend mode="normal" in="SourceGraphic" in2="effect1_dropShadow_1432_5952" result="shape"/>
</filter>
<filter id="filter3_d_1432_5952" x="441" y="0" width="13" height="138" filterUnits="userSpaceOnUse" color-interpolation-filters="sRGB">
<feFlood flood-opacity="0" result="BackgroundImageFix"/>
<feColorMatrix in="SourceAlpha" type="matrix" values="0 0 0 0 0 0 0 0 0 0 0 0 0 0 0 0 0 0 127 0" result="hardAlpha"/>
<feOffset dy="4"/>
<feGaussianBlur stdDeviation="2"/>
<feComposite in2="hardAlpha" operator="out"/>
<feColorMatrix type="matrix" values="0 0 0 0 0 0 0 0 0 0 0 0 0 0 0 0 0 0 0.25 0"/>
<feBlend mode="normal" in2="BackgroundImageFix" result="effect1_dropShadow_1432_5952"/>
<feBlend mode="normal" in="SourceGraphic" in2="effect1_dropShadow_1432_5952" result="shape"/>
</filter>
<filter id="filter4_d_1432_5952" x="-4" y="504" width="427" height="13" filterUnits="userSpaceOnUse" color-interpolation-filters="sRGB">
<feFlood flood-opacity="0" result="BackgroundImageFix"/>
<feColorMatrix in="SourceAlpha" type="matrix" values="0 0 0 0 0 0 0 0 0 0 0 0 0 0 0 0 0 0 127 0" result="hardAlpha"/>
<feOffset dy="4"/>
<feGaussianBlur stdDeviation="2"/>
<feComposite in2="hardAlpha" operator="out"/>
<feColorMatrix type="matrix" values="0 0 0 0 0 0 0 0 0 0 0 0 0 0 0 0 0 0 0.25 0"/>
<feBlend mode="normal" in2="BackgroundImageFix" result="effect1_dropShadow_1432_5952"/>
<feBlend mode="normal" in="SourceGraphic" in2="effect1_dropShadow_1432_5952" result="shape"/>
</filter>
</defs>
</svg>
