<svg width="24" height="28" viewBox="0 0 24 28" fill="none" xmlns="http://www.w3.org/2000/svg">
<path d="M0.684368 0.639966C0.357128 1.05379 0.191898 1.58366 0.222368 2.12152V25.4425C0.191694 25.9804 0.356948 26.5103 0.684368 26.924L0.758369 27L13.1494 13.936V13.628L0.758369 0.562988L0.684368 0.639966Z" fill="url(#paint0_linear_1418_1293)"/>
<path d="M17.2764 18.2931L13.1484 13.936V13.628L17.2794 9.27197L17.3724 9.32891L22.2654 12.2604C23.6654 13.0976 23.6654 14.4674 22.2654 15.3047L17.3724 18.2361L17.2764 18.2931Z" fill="url(#paint1_linear_1418_1293)"/>
<path d="M17.3706 18.236L13.1486 13.7808L0.683594 26.9239C0.9685 27.1888 1.33235 27.3403 1.71207 27.3521C2.0918 27.3638 2.46345 27.2351 2.76259 26.9882L17.3706 18.236Z" fill="url(#paint2_linear_1418_1293)"/>
<path d="M17.3706 9.32778L2.76259 0.575561C2.46345 0.328661 2.0918 0.199928 1.71207 0.211676C1.33235 0.223424 0.9685 0.374915 0.683594 0.639885L13.1486 13.7809L17.3706 9.32778Z" fill="url(#paint3_linear_1418_1293)"/>
<path opacity="0.12" d="M22.2633 15.1516L17.2773 18.1389L17.3703 18.237L22.2633 15.3055C22.5514 15.1735 22.8007 14.9624 22.985 14.6942C23.1694 14.426 23.2821 14.1106 23.3113 13.7808C23.25 14.0795 23.1233 14.3591 22.9413 14.5971C22.7594 14.8351 22.5272 15.025 22.2633 15.1516Z" fill="black"/>
<path opacity="0.25" d="M2.76266 0.729562L22.2627 12.4132C22.5264 12.5394 22.7585 12.7288 22.9406 12.9662C23.1227 13.2036 23.2498 13.4826 23.3117 13.7809C23.2822 13.4514 23.1695 13.1363 22.9851 12.8685C22.8008 12.6006 22.5516 12.3899 22.2637 12.2582L2.76366 0.574553C1.36366 -0.262707 0.222657 0.433252 0.222657 2.12043V2.27544C0.221657 0.588262 1.36466 -0.107699 2.76266 0.729562Z" fill="white"/>
<defs>
<linearGradient id="paint0_linear_1418_1293" x1="12.0503" y1="175.417" x2="-7.92296" y2="170.382" gradientUnits="userSpaceOnUse">
<stop stop-color="#00A0FF"/>
<stop offset="0.007" stop-color="#00A1FF"/>
<stop offset="0.26" stop-color="#00BEFF"/>
<stop offset="0.512" stop-color="#00D2FF"/>
<stop offset="0.76" stop-color="#00DFFF"/>
<stop offset="1" stop-color="#00E3FF"/>
</linearGradient>
<linearGradient id="paint1_linear_1418_1293" x1="24.0881" y1="163.515" x2="-0.119493" y2="163.515" gradientUnits="userSpaceOnUse">
<stop stop-color="#FFE000"/>
<stop offset="0.409" stop-color="#FFBD00"/>
<stop offset="0.775" stop-color="#FFA500"/>
<stop offset="1" stop-color="#FF9C00"/>
</linearGradient>
<linearGradient id="paint2_linear_1418_1293" x1="15.0678" y1="161.214" x2="-2.14687" y2="133.728" gradientUnits="userSpaceOnUse">
<stop stop-color="#FF3A44"/>
<stop offset="1" stop-color="#C31162"/>
</linearGradient>
<linearGradient id="paint3_linear_1418_1293" x1="-2.45356" y1="184.531" x2="5.23787" y2="172.262" gradientUnits="userSpaceOnUse">
<stop stop-color="#32A071"/>
<stop offset="0.068" stop-color="#2DA771"/>
<stop offset="0.476" stop-color="#15CF74"/>
<stop offset="0.801" stop-color="#06E775"/>
<stop offset="1" stop-color="#00F076"/>
</linearGradient>
</defs>
</svg>
