<svg width="18" height="24" viewBox="0 0 18 24" fill="none" xmlns="http://www.w3.org/2000/svg">
<path d="M14.9955 13.0975C15.0064 12.2174 15.2281 11.3544 15.6402 10.5889C16.0523 9.8234 16.6414 9.18026 17.3525 8.71931C16.9008 8.03898 16.3049 7.47908 15.6121 7.08406C14.9193 6.68905 14.1487 6.4698 13.3615 6.44374C11.6825 6.25815 10.0545 7.49822 9.19853 7.49822C8.32653 7.49822 7.00853 6.45744 5.59053 6.48802C4.67282 6.51926 3.77844 6.80065 2.99454 7.30479C2.21064 7.80892 1.56396 8.5186 1.11753 9.36466C-0.816473 12.8951 0.626527 18.0842 2.47853 20.9387C3.40553 22.3359 4.48853 23.8976 5.90653 23.8417C7.29353 23.7805 7.81153 22.9095 9.48553 22.9095C11.1445 22.9095 11.6305 23.8417 13.0765 23.8069C14.5645 23.7816 15.5025 22.4034 16.3975 20.9925C17.0634 19.9965 17.5757 18.8957 17.9155 17.7309C17.0507 17.3452 16.3128 16.6995 15.7937 15.8744C15.2746 15.0493 14.9974 14.0814 14.9965 13.0912L14.9955 13.0975Z" fill="#242426"/>
<path d="M12.2624 4.56792C13.0742 3.54064 13.4742 2.22004 13.3774 0.886719C12.1373 1.02399 10.9919 1.649 10.1694 2.63716C9.76721 3.11968 9.45918 3.68105 9.26289 4.28917C9.06659 4.89729 8.98589 5.54025 9.02538 6.18128C9.64551 6.18803 10.259 6.04634 10.8197 5.76688C11.3804 5.48743 11.8737 5.07749 12.2624 4.56792Z" fill="#242426"/>
</svg>
