<svg width="6" height="10" viewBox="0 0 6 10" fill="none" xmlns="http://www.w3.org/2000/svg">
<path d="M4.61667 0.416497C4.49319 0.416968 4.37108 0.442382 4.25766 0.491213C4.14425 0.540045 4.04187 0.611286 3.95667 0.700663L0.418332 4.36733C0.250374 4.53868 0.156296 4.76906 0.156296 5.009C0.156296 5.24894 0.250374 5.47931 0.418332 5.65066L4.085 9.31733C4.17047 9.4028 4.27193 9.4706 4.3836 9.51685C4.49527 9.56311 4.61496 9.58691 4.73583 9.58691C4.8567 9.58691 4.97639 9.56311 5.08806 9.51685C5.19973 9.4706 5.3012 9.4028 5.38667 9.31733C5.47213 9.23186 5.53993 9.1304 5.58619 9.01873C5.63244 8.90705 5.65625 8.78737 5.65625 8.6665C5.65625 8.54563 5.63244 8.42594 5.58619 8.31427C5.53993 8.2026 5.47213 8.10113 5.38667 8.01566L2.36167 4.99983L5.27667 1.97483C5.40335 1.84559 5.48895 1.68174 5.52267 1.50393C5.55638 1.32612 5.53671 1.1423 5.46613 0.975654C5.39555 0.809005 5.27722 0.666978 5.12605 0.567472C4.97488 0.467965 4.79764 0.415434 4.61667 0.416497Z" fill="#2CB7B3"/>
</svg>
