<svg width="29" height="20" viewBox="0 0 29 20" fill="none" xmlns="http://www.w3.org/2000/svg">
<path d="M19.718 0.325684C17.9443 0.325684 16.2104 0.880304 14.7356 1.91941C13.2609 2.95852 12.1114 4.43544 11.4327 6.16341C10.7539 7.89138 10.5763 9.79279 10.9223 11.6272C11.2684 13.4616 12.1225 15.1466 13.3767 16.4691C14.6309 17.7917 16.2288 18.6923 17.9684 19.0572C19.7081 19.4221 21.5112 19.2348 23.1499 18.5191C24.7886 17.8033 26.1892 16.5912 27.1746 15.0361C28.16 13.481 28.686 11.6526 28.686 9.7823C28.686 8.54044 28.454 7.31074 28.0034 6.16341C27.5527 5.01608 26.8921 3.97359 26.0593 3.09546C25.2266 2.21733 24.238 1.52077 23.1499 1.04553C22.0619 0.570286 20.8957 0.325684 19.718 0.325684Z" fill="#B1B2B4"/>
<path d="M9.468 0.325684C7.6943 0.325684 5.96043 0.880304 4.48565 1.91941C3.01087 2.95852 1.86142 4.43544 1.18265 6.16341C0.503886 7.89138 0.326289 9.79279 0.672322 11.6272C1.01835 13.4616 1.87247 15.1466 3.12667 16.4691C4.38087 17.7917 5.97881 18.6923 7.71843 19.0572C9.45806 19.4221 11.2612 19.2348 12.8999 18.5191C14.5386 17.8033 15.9392 16.5912 16.9246 15.0361C17.91 13.481 18.436 11.6526 18.436 9.7823C18.436 7.27425 17.4912 4.86892 15.8093 3.09546C14.1275 1.322 11.8465 0.325684 9.468 0.325684Z" fill="#B1B2B4"/>
<path d="M10.75 9.78243C10.7495 11.3061 11.0988 12.8072 11.768 14.1576C12.4372 15.508 13.4065 16.6675 14.593 17.5371C15.7791 16.6673 16.7481 15.5078 17.4173 14.1575C18.0864 12.8073 18.4359 11.3064 18.4359 9.78296C18.4359 8.25948 18.0864 6.7586 17.4173 5.40838C16.7481 4.05815 15.7791 2.89866 14.593 2.02881C13.4066 2.89828 12.4374 4.05762 11.7682 5.40781C11.099 6.75801 10.7497 8.25895 10.75 9.78243Z" fill="#B1B2B4" stroke="white"/>
</svg>
