<svg width="25" height="25" viewBox="0 0 25 25" fill="none" xmlns="http://www.w3.org/2000/svg">
<path d="M8.99966 5.92356C9.03003 5.77624 9.10732 5.64432 9.21866 5.54975C9.33 5.45517 9.46868 5.40363 9.61166 5.4037H18.2417C18.2527 5.4037 18.2637 5.4037 18.2747 5.4037C18.1955 4.07903 17.6249 2.84048 16.6864 1.956C15.7479 1.07152 14.5169 0.612236 13.2597 0.677501H4.62966C4.48591 0.678571 4.34683 0.731446 4.23551 0.827351C4.12419 0.923255 4.04732 1.05642 4.01766 1.20474L0.242656 19.4642H0.250656C0.236656 19.5069 0.227263 19.5511 0.222656 19.596C0.222653 19.6845 0.239274 19.7721 0.27156 19.8537C0.303846 19.9354 0.351158 20.0095 0.41076 20.0717C0.470362 20.134 0.541074 20.1832 0.618809 20.2165C0.696545 20.2497 0.779763 20.2664 0.863656 20.2656H6.03366L8.99966 5.92356Z" fill="#B2B0B2"/>
<path d="M19.276 5.40137C19.3095 6.0545 19.2584 6.70939 19.124 7.34795C18.8076 9.15613 17.8753 10.78 16.5027 11.914C15.13 13.0479 13.4117 13.6138 11.671 13.5051H8.91303C8.79518 13.4993 8.67841 13.531 8.57785 13.5961C8.4773 13.6612 8.39758 13.7565 8.34903 13.8699L7.23403 19.3069L7.03403 20.2717L6.22403 24.187H6.23203C6.21912 24.2295 6.21074 24.2733 6.20703 24.3178C6.2069 24.4066 6.22339 24.4945 6.25556 24.5766C6.28772 24.6587 6.33493 24.7332 6.39448 24.796C6.45403 24.8588 6.52475 24.9086 6.60258 24.9425C6.68041 24.9764 6.76382 24.9938 6.84803 24.9937H11.548L11.556 24.9874C11.6985 24.9844 11.8359 24.9307 11.9457 24.835C12.0556 24.7393 12.1315 24.6071 12.161 24.4601L12.173 24.4496L13.334 18.7648C13.3591 18.6112 13.4355 18.4721 13.5494 18.3726C13.6633 18.2732 13.8072 18.2201 13.955 18.2228H16.631C20.297 18.2228 23.293 16.1244 24.115 12.0752C25.039 7.50295 21.95 5.41824 19.276 5.40137Z" fill="#B1B2B4"/>
<path d="M9.61647 4.35352C9.47345 4.35325 9.33467 4.40472 9.22329 4.49933C9.11191 4.59394 9.03467 4.72597 9.00447 4.87338L7.35547 12.82C7.40402 12.7066 7.48373 12.6112 7.58429 12.5461C7.68485 12.4811 7.80162 12.4494 7.91947 12.4551H10.6275C14.2935 12.4551 17.3095 10.3462 18.1275 6.29799C18.2541 5.92024 18.3008 5.51788 18.2645 5.11907C18.2538 5.11841 18.2431 5.11841 18.2325 5.11907L9.61647 4.35352Z" fill="#B1B2B4"/>
</svg>
