<svg width="45" height="31" viewBox="0 0 45 31" fill="none" xmlns="http://www.w3.org/2000/svg">
<path d="M41.4 30.7494H3.149C3.06 30.7399 2.966 30.7336 2.869 30.7272H2.861C2.67822 30.7193 2.49615 30.6985 2.316 30.665C2.03361 30.6184 1.76055 30.5225 1.508 30.3814C1.25678 30.2542 1.02892 30.081 0.835 29.8699C0.64296 29.657 0.479749 29.4172 0.35 29.1571C0.22445 28.8875 0.133968 28.6013 0.081 28.3061C0.0281818 28.0166 0.0010645 27.7226 0 27.4278L0 4.00661C0.01 3.90959 0.017 3.80942 0.023 3.6987C0.0307729 3.50708 0.0501457 3.31618 0.081 3.12717C0.124794 2.82961 0.215729 2.54195 0.35 2.2762C0.470662 2.0113 0.634865 1.77103 0.835 1.56653C1.02892 1.35547 1.25678 1.18232 1.508 1.0551C1.76395 0.922517 2.03576 0.827098 2.316 0.771448C2.59044 0.714966 2.86938 0.686364 3.149 0.686035L41.4 0.686035C41.489 0.695526 41.584 0.701852 41.68 0.708179H41.689C41.8721 0.716568 42.0545 0.737704 42.235 0.771448C42.5172 0.817668 42.79 0.913555 43.042 1.0551C43.293 1.18274 43.5208 1.35584 43.715 1.56653C43.9069 1.77813 44.0698 2.017 44.199 2.2762C44.3255 2.54547 44.4164 2.83181 44.469 3.12717C44.5223 3.41695 44.5494 3.71142 44.55 4.00661V27.4278C44.541 27.5332 44.534 27.6387 44.528 27.7315C44.5198 27.9245 44.5001 28.1168 44.469 28.3072C44.425 28.6044 44.3341 28.8916 44.2 29.1571C44.0798 29.422 43.9159 29.6623 43.716 29.8668C43.515 30.0691 43.2886 30.2412 43.043 30.3782C42.7874 30.5107 42.5159 30.6062 42.236 30.6619C41.9606 30.7192 41.6807 30.7485 41.4 30.7494ZM3.149 1.68041C2.91462 1.67358 2.68023 1.69373 2.45 1.74052C2.26224 1.7631 2.07975 1.82058 1.911 1.91029C1.75062 1.99818 1.60502 2.11325 1.48 2.25089C1.3498 2.38303 1.24073 2.53651 1.157 2.70537C1.07727 2.88371 1.02431 3.07403 1 3.26952V3.27796C0.970705 3.52008 0.953348 3.76364 0.948 4.00766V27.3982C0.940159 27.6456 0.957931 27.8931 1.001 28.1364C1.0223 28.3347 1.07681 28.5275 1.162 28.7058C1.2443 28.8733 1.35168 29.0257 1.48 29.1571C1.60476 29.2951 1.75042 29.4102 1.911 29.4977C2.07409 29.6062 2.25837 29.6743 2.45 29.697C2.674 29.7234 2.95 29.7529 3.15 29.7529H41.4C41.6346 29.7613 41.8693 29.7425 42.1 29.697C42.288 29.6749 42.4706 29.617 42.639 29.5262C42.7991 29.4393 42.9441 29.3245 43.068 29.1866C43.2018 29.0568 43.314 28.9043 43.4 28.7353C43.483 28.5564 43.5381 28.3644 43.563 28.167C43.593 27.9221 43.6107 27.6757 43.616 27.4288V4.00661C43.6238 3.75926 43.6061 3.51175 43.563 3.26847C43.5419 3.07014 43.4866 2.87754 43.4 2.7001C43.3171 2.53068 43.2079 2.37707 43.077 2.24562C42.9529 2.1078 42.8079 1.9927 42.648 1.90502C42.4761 1.81605 42.2905 1.76034 42.1 1.74052C41.8678 1.70893 41.6341 1.69027 41.4 1.68463H3.149V1.68041Z" fill="#B1B2B4"/>
<path d="M12.169 10.7923C12.5814 10.269 12.784 9.59678 12.734 8.91846C12.102 8.98684 11.5167 9.30069 11.092 9.79895C10.886 10.0417 10.7276 10.3252 10.626 10.6328C10.5244 10.9405 10.4816 11.2664 10.5 11.5916C10.8189 11.6149 11.1382 11.5544 11.4295 11.4157C11.7208 11.2769 11.9749 11.0642 12.169 10.7965V10.7923ZM12.734 11.7613C11.819 11.7044 11.034 12.3002 10.607 12.3002C10.18 12.3002 9.50704 11.7888 8.77604 11.7888C8.30575 11.8033 7.84722 11.9472 7.4459 12.2061C7.04457 12.4651 6.71438 12.8301 6.48804 13.265C5.51904 15.0577 6.21904 17.6939 7.18804 19.1417C7.64604 19.8514 8.21105 20.6464 8.93805 20.618C9.63805 20.5895 9.90704 20.135 10.738 20.135C11.569 20.135 11.815 20.618 12.569 20.5895C13.323 20.561 13.807 19.8798 14.269 19.1417C14.6025 18.6392 14.8571 18.0834 15.023 17.4956C14.6096 17.3098 14.2529 17.007 13.9924 16.6209C13.7318 16.2348 13.5775 15.7802 13.5464 15.3074C13.5154 14.8346 13.6088 14.362 13.8165 13.9416C14.0241 13.5213 14.3378 13.1697 14.723 12.9255C14.5014 12.5801 14.2053 12.295 13.8591 12.0934C13.5129 11.8918 13.1263 11.7794 12.731 11.7656" fill="#B1B2B4"/>
<path d="M20.6472 9.74197C21.093 9.71723 21.5387 9.79111 21.9558 9.95887C22.3729 10.1266 22.7521 10.3845 23.069 10.716C23.3859 11.0475 23.6335 11.4453 23.796 11.8837C23.9584 12.3222 24.0321 12.7916 24.0122 13.2618C24.0306 13.7377 23.9542 14.2124 23.7881 14.6553C23.622 15.0981 23.3698 15.4995 23.0478 15.8334C22.7257 16.1673 22.341 16.4265 21.9182 16.5941C21.4955 16.7618 21.0441 16.8343 20.5932 16.807H18.4122V20.4692H16.8242V9.74197H20.6472ZM18.4132 15.4193H20.2132C20.489 15.4376 20.7655 15.3962 21.0256 15.2974C21.2856 15.1987 21.5237 15.0449 21.7252 14.8454C21.9266 14.6459 22.0872 14.405 22.197 14.1375C22.3067 13.8701 22.3634 13.5817 22.3634 13.2903C22.3634 12.9989 22.3067 12.7105 22.197 12.4431C22.0872 12.1756 21.9266 11.9347 21.7252 11.7352C21.5237 11.5357 21.2856 11.3819 21.0256 11.2832C20.7655 11.1845 20.489 11.143 20.2132 11.1613H18.3852V15.4193H18.4132ZM24.4132 18.2865C24.4132 16.9241 25.4132 16.072 27.1862 15.9592L29.2322 15.8453V15.2495C29.2322 14.369 28.6672 13.8587 27.7512 13.8587C27.404 13.8118 27.0527 13.9018 26.7646 14.1114C26.4765 14.321 26.2719 14.6355 26.1902 14.9944H24.7392C24.8202 13.575 25.9772 12.5248 27.8082 12.5248C29.6082 12.5248 30.7692 13.5181 30.7692 15.1082V20.4977H29.3152V19.2228H29.2882C29.0554 19.66 28.7148 20.0227 28.3026 20.2726C27.8903 20.5224 27.4217 20.6501 26.9462 20.6422C26.6301 20.679 26.3101 20.6456 26.007 20.5443C25.7038 20.4429 25.424 20.2758 25.1858 20.0536C24.9475 19.8314 24.7559 19.5592 24.6234 19.2543C24.4909 18.9494 24.4203 18.6187 24.4162 18.2833L24.4132 18.2865ZM29.2322 17.5768V16.9525L27.4012 17.0664C26.4862 17.1234 25.9742 17.5494 25.9742 18.2263C25.9742 18.9033 26.5122 19.362 27.3202 19.362C27.5582 19.3809 27.7973 19.3491 28.0234 19.2685C28.2495 19.188 28.4579 19.0603 28.6362 18.893C28.8145 18.7257 28.959 18.5224 29.0613 18.295C29.1635 18.0676 29.2213 17.8208 29.2312 17.5694L29.2322 17.5768ZM32.1132 23.3965V22.09C32.2739 22.1136 32.4361 22.1232 32.5982 22.1185C32.9097 22.142 33.2182 22.0412 33.4625 21.8361C33.7068 21.631 33.8691 21.3366 33.9172 21.0112C33.9172 20.9828 34.0522 20.5283 34.0522 20.5283L31.3612 12.6945H33.0032L34.8872 19.0815H34.9142L36.7992 12.6945H38.4142L35.6412 20.9554C34.9952 22.8534 34.2682 23.4534 32.7342 23.4534C32.6242 23.425 32.2502 23.425 32.1152 23.3965H32.1132Z" fill="#B1B2B4"/>
</svg>
