<svg width="35" height="13" viewBox="0 0 35 13" fill="none" xmlns="http://www.w3.org/2000/svg">
<path d="M15.2754 12.025H12.5454L14.2514 0.967697H16.9814L15.2754 12.025ZM10.2454 0.967697L7.64544 8.57264L7.33744 6.93502L6.41844 1.96313C6.36345 1.65448 6.19882 1.3796 5.95815 1.1946C5.71748 1.0096 5.41893 0.928448 5.12344 0.967697H0.823438L0.773438 1.15539C1.78092 1.4216 2.74399 1.8483 3.62944 2.42077L6.00144 12.0271H8.84544L13.1884 0.969804H10.2454V0.967697ZM31.7204 12.025H34.2274L32.0454 0.967697H29.8454C29.5797 0.945931 29.3142 1.01403 29.0877 1.16212C28.8611 1.31021 28.6852 1.53058 28.5854 1.79125L24.5144 12.0197H27.3604L27.9294 10.3769H31.3994L31.7204 12.025ZM28.7204 8.11394L30.1544 3.97614L30.9614 8.11394H28.7204ZM24.7324 3.62711L25.1224 1.25241C24.3336 0.955197 23.5049 0.792521 22.6674 0.770508C21.3124 0.770508 18.0954 1.39476 18.0954 4.43062C18.0954 7.28722 21.8714 7.32307 21.8714 8.82255C21.8714 10.322 18.4844 10.0542 17.3714 9.10831L16.9654 11.5906C17.9405 12.0209 18.9896 12.2334 20.0464 12.2148C21.9094 12.2148 24.7194 11.1972 24.7194 8.42923C24.7194 5.5547 20.9094 5.28686 20.9094 4.0373C20.9094 2.78774 23.5614 2.94802 24.7294 3.62711H24.7324Z" fill="#B1B2B4"/>
<path d="M7.33744 6.93647L6.41844 1.96457C6.36345 1.65592 6.19882 1.38104 5.95815 1.19604C5.71748 1.01105 5.41893 0.929892 5.12344 0.969141H0.823438L0.773438 1.15684C2.25427 1.55527 3.63564 2.28736 4.82244 3.30272C5.95096 4.25793 6.81884 5.51186 7.33744 6.93647Z" fill="#B1B2B4"/>
</svg>
