<svg width="31" height="33" viewBox="0 0 31 33" fill="none" xmlns="http://www.w3.org/2000/svg">
<path d="M29.1031 22.7843C29.4623 22.7657 29.8108 22.6487 30.1141 22.4448V32.2768H0.414062V16.3414H1.78906L2.08307 15.5664H2.87906L3.17906 16.3414H14.3581V15.5664L14.9581 16.3414H17.9671V15.7962C18.325 16.1416 18.791 16.3357 19.2761 16.3414H21.2761L21.5671 15.5664H22.3581L22.6581 16.3414H25.5891V15.4694L26.1171 16.3414H28.1381V11.4254H26.1171V12.2943L25.5661 11.4254H23.5661V12.9512L22.9451 11.4381L19.4591 11.4254C18.9148 11.4204 18.3863 11.6175 17.9661 11.9822V11.4254H7.22106L6.85606 12.5337L6.47906 11.4254H4.08806V12.9586L3.45606 11.4254H1.53106L0.418064 14.1671V0.963867H30.1181V17.8673H12.1951L11.6481 18.5948L11.1181 17.8673H6.17906V22.7833H11.0841L11.6211 22.0398L12.1501 22.7833H15.1131V21.6444H15.7791C16.0713 21.6634 16.363 21.5997 16.6241 21.4599V22.7833H18.5791V22.0082L19.1791 22.7833H29.1011L29.1031 22.7843ZM1.40306 15.7129H0.425064L0.852062 14.6648L1.92606 12.0286H3.06406L4.56406 15.7098H3.56406L3.28806 14.9716H1.67906L1.40306 15.7129ZM1.99006 14.1766H2.97306L2.47906 12.8922L1.99006 14.1766ZM9.03207 15.7119V12.0307H7.65206L6.86306 14.4096L6.05506 12.036L4.66607 12.0307V15.7119H5.53906V12.9976L6.46706 15.7098H7.23206L8.15707 12.9976V15.7098L9.03207 15.7119ZM12.4771 12.8542V12.0307H9.62706V15.7119H12.4791V14.9126H10.5091V14.263H12.4291V13.488H10.5091V12.8553H12.4791L12.4771 12.8542ZM15.1871 14.3569L16.3351 15.7129H15.2671L14.2211 14.4054H13.8541V15.7129H12.9791V12.0317H14.9211C15.0771 12.0184 15.2341 12.0395 15.3821 12.0936C15.53 12.1477 15.6656 12.2337 15.7804 12.346C15.8951 12.4584 15.9864 12.5947 16.0485 12.7462C16.1106 12.8978 16.1421 13.0614 16.1411 13.2265C16.1447 13.5068 16.0485 13.7784 15.8715 13.9877C15.6945 14.197 15.4496 14.3287 15.1851 14.3569H15.1871ZM15.2661 13.2423C15.2576 13.1341 15.21 13.0336 15.1331 12.9615C15.0562 12.8894 14.9559 12.8514 14.8531 12.8553H13.8531V13.6303H14.8641C14.9652 13.6322 15.0632 13.5929 15.1377 13.5207C15.2121 13.4484 15.2574 13.3488 15.2641 13.2423H15.2661ZM16.5011 12.0307V15.7119H17.3921V12.0307H16.5011ZM17.8171 13.8866C17.7899 14.1127 17.8083 14.3422 17.8709 14.5603C17.9335 14.7784 18.039 14.9802 18.1806 15.1524C18.3221 15.3246 18.4964 15.4635 18.6923 15.5599C18.8881 15.6563 19.101 15.7081 19.3171 15.7119H19.5091L19.8761 14.9084H19.6461C19.5173 14.9234 19.387 14.9074 19.265 14.8616C19.1429 14.8157 19.0324 14.7412 18.9417 14.6437C18.8509 14.5462 18.7824 14.4283 18.7412 14.2987C18.7001 14.1692 18.6874 14.0315 18.7041 13.8961C18.6898 13.7733 18.7001 13.6488 18.7342 13.5305C18.7683 13.4122 18.8256 13.3027 18.9022 13.2091C18.9789 13.1156 19.0733 13.0399 19.1794 12.9872C19.2855 12.9344 19.4008 12.9056 19.5181 12.9027H20.5181V12.0307H19.5491C19.3138 12.0085 19.0768 12.0415 18.8551 12.1273C18.6334 12.2131 18.4324 12.3496 18.2666 12.527C18.1009 12.7045 17.9744 12.9184 17.8963 13.1534C17.8183 13.3885 17.7905 13.6389 17.8151 13.8866H17.8171ZM19.9031 15.7129L21.4031 12.0317H22.5411L24.0411 15.7129H23.0411L22.7651 14.9748H21.1551L20.8781 15.7129H19.9011H19.9031ZM21.4681 14.1766H22.4511L21.9571 12.8922L21.4681 14.1766ZM26.4681 15.7119H27.5421V12.0307H26.6691V14.3432L25.2521 12.0307H24.1421V15.7119H25.0151V13.3393L26.4681 15.7119ZM9.62807 19.2971V18.4736H6.77906V22.1548H9.62706V21.3555H7.66106V20.7017H9.57906V19.9256H7.65907V19.2929H9.62506L9.62807 19.2971ZM23.5821 19.2971V18.4736H20.7341V22.1548H23.5791V21.3555H21.6161V20.7017H23.5271V19.9256H21.6161V19.2929H23.5791L23.5821 19.2971ZM12.4981 18.4736L11.6501 19.6251L10.8051 18.4736H9.70506L11.1251 20.3369L9.73806 22.1548H10.8221L11.6221 21.0212L12.4431 22.1548H13.5431L12.1541 20.3147L13.5541 18.4746H12.4981V18.4736ZM15.5741 18.4736C15.7356 18.458 15.8984 18.4787 16.0518 18.5343C16.2052 18.5899 16.3457 18.6791 16.4641 18.796C16.5824 18.913 16.676 19.055 16.7385 19.2128C16.8011 19.3706 16.8313 19.5406 16.8271 19.7115C16.8296 19.8945 16.7947 20.0759 16.7247 20.2433C16.6548 20.4108 16.5514 20.5603 16.4217 20.6818C16.2919 20.8033 16.1389 20.8939 15.9729 20.9474C15.807 21.0009 15.632 21.016 15.4601 20.9917H14.5411V22.1516H13.6411V18.4736H15.5741ZM15.5091 19.3056H14.5421V20.1492H15.5071C15.5623 20.154 15.6179 20.1466 15.6703 20.1276C15.7227 20.1086 15.7708 20.0783 15.8115 20.0386C15.8522 19.999 15.8847 19.9508 15.9068 19.8972C15.9289 19.8437 15.9403 19.7858 15.9401 19.7274C15.941 19.6689 15.9303 19.6109 15.9085 19.5572C15.8867 19.5034 15.8545 19.4551 15.8138 19.4154C15.7731 19.3757 15.7249 19.3454 15.6724 19.3267C15.6199 19.308 15.5643 19.3011 15.5091 19.3066V19.3056ZM19.4091 20.7977L20.5571 22.1537H19.4931L18.4471 20.8462H18.0791V22.1537H17.2061V18.4725H19.1481C19.3041 18.4592 19.4611 18.4803 19.6091 18.5344C19.757 18.5885 19.8926 18.6745 20.0074 18.7868C20.1221 18.8992 20.2134 19.0355 20.2755 19.187C20.3376 19.3386 20.3691 19.5021 20.3681 19.6673C20.3724 19.9483 20.2764 20.2208 20.0992 20.4308C19.9219 20.6408 19.6763 20.7728 19.4111 20.8008L19.4091 20.7977ZM19.4881 19.6841C19.4799 19.5766 19.433 19.4764 19.3569 19.4042C19.2808 19.332 19.1814 19.2933 19.0791 19.2961H18.0791V20.0711H19.0891C19.1902 20.0733 19.2883 20.0343 19.363 19.9622C19.4376 19.8902 19.4832 19.7906 19.4901 19.6841H19.4881ZM25.7311 21.3555H23.9861V22.1548H25.8461C25.9963 22.1682 26.1474 22.1472 26.2892 22.0934C26.431 22.0395 26.5601 21.9539 26.6677 21.8426C26.7753 21.7313 26.8588 21.5968 26.9125 21.4483C26.9663 21.2998 26.989 21.1408 26.9791 20.9822C26.9869 20.8323 26.963 20.6824 26.909 20.5435C26.855 20.4045 26.7723 20.28 26.6669 20.179C26.5616 20.078 26.4362 20.0031 26.2999 19.9596C26.1636 19.9161 26.0198 19.9052 25.8791 19.9277H25.0521C25.0109 19.9309 24.9695 19.9251 24.9305 19.9106C24.8915 19.8962 24.8558 19.8734 24.8256 19.8437C24.7953 19.814 24.7712 19.778 24.7548 19.738C24.7384 19.6981 24.73 19.6549 24.7301 19.6114C24.7301 19.4627 24.8161 19.3077 25.0971 19.3077H26.5791L26.9461 18.4799H25.2461C24.2271 18.4799 23.8771 19.0493 23.8771 19.6398C23.8662 19.7896 23.8865 19.9401 23.9366 20.0807C23.9868 20.2213 24.0655 20.3487 24.1673 20.4538C24.2691 20.5589 24.3914 20.6393 24.5258 20.6892C24.6602 20.7391 24.8033 20.7574 24.9451 20.7428H25.7341C25.9931 20.7428 26.1041 20.8989 26.1041 21.0592C26.1041 21.2195 25.9911 21.3555 25.7321 21.3555H25.7311ZM30.1121 20.5393C30.0267 20.3347 29.8811 20.1646 29.6968 20.0542C29.5125 19.9439 29.2994 19.8991 29.0891 19.9267H28.2621C28.2209 19.9299 28.1795 19.924 28.1405 19.9096C28.1015 19.8951 28.0658 19.8723 28.0356 19.8426C28.0053 19.8129 27.9812 19.777 27.9648 19.737C27.9484 19.697 27.94 19.6539 27.9401 19.6103C27.9401 19.4616 28.0261 19.3066 28.3071 19.3066H29.7791L30.1131 18.5548L30.1471 18.4789H28.4471C27.4281 18.4789 27.0781 19.0483 27.0781 19.6388C27.0672 19.7886 27.0875 19.9391 27.1376 20.0797C27.1878 20.2203 27.2665 20.3476 27.3683 20.4527C27.4701 20.5579 27.5924 20.6382 27.7268 20.6881C27.8612 20.7381 28.0043 20.7564 28.1461 20.7418H28.9461C29.1951 20.7418 29.3041 20.9 29.3041 21.0518C29.3043 21.1061 29.2901 21.1595 29.2631 21.2057C29.226 21.2598 29.176 21.3026 29.1183 21.3298C29.0605 21.357 28.997 21.3677 28.9341 21.3608H27.1891V22.1601H29.0491C29.3042 22.1695 29.5555 22.0935 29.7671 21.9428C29.9271 21.8209 30.0479 21.6501 30.1131 21.4536C30.1631 21.3042 30.1882 21.1469 30.1871 20.9885C30.1893 20.8352 30.1642 20.6828 30.1131 20.5393H30.1121Z" fill="#B1B2B4"/>
</svg>
