<svg width="18" height="19" viewBox="0 0 18 19" fill="none" xmlns="http://www.w3.org/2000/svg">
<path d="M5.67975 0.959961C4.36482 0.962747 3.10451 1.5148 2.17471 2.49525C1.24492 3.47571 0.721393 4.80469 0.71875 6.19126L0.71875 13.7509C0.721393 15.1374 1.24492 16.4664 2.17471 17.4469C3.10451 18.4273 4.36482 18.9794 5.67975 18.9822H12.8488C14.1637 18.9794 15.424 18.4273 16.3538 17.4469C17.2836 16.4664 17.8071 15.1374 17.8097 13.7509V6.19126C17.8071 4.80469 17.2836 3.47571 16.3538 2.49525C15.424 1.5148 14.1637 0.962747 12.8488 0.959961H5.67975ZM5.67975 2.34661H12.8488C13.3279 2.34522 13.8026 2.44371 14.2456 2.63643C14.6885 2.82915 15.091 3.11229 15.4298 3.46958C15.7686 3.82686 16.0371 4.25125 16.2199 4.71833C16.4027 5.18541 16.4961 5.68598 16.4948 6.19126V13.7509C16.4961 14.2561 16.4027 14.7567 16.2199 15.2238C16.0371 15.6909 15.7686 16.1153 15.4298 16.4725C15.091 16.8298 14.6885 17.113 14.2456 17.3057C13.8026 17.4984 13.3279 17.5969 12.8488 17.5955H5.67975C5.20058 17.5969 4.72588 17.4984 4.28293 17.3057C3.83998 17.113 3.43752 16.8298 3.0987 16.4725C2.75987 16.1153 2.49136 15.6909 2.3086 15.2238C2.12584 14.7567 2.03243 14.2561 2.03375 13.7509V6.19126C2.03243 5.68598 2.12584 5.18541 2.3086 4.71833C2.49136 4.25125 2.75987 3.82686 3.0987 3.46958C3.43752 3.11229 3.83998 2.82915 4.28293 2.63643C4.72588 2.44371 5.20058 2.34522 5.67975 2.34661ZM14.1947 3.73325C13.9997 3.73325 13.8091 3.79423 13.647 3.90848C13.4848 4.02273 13.3584 4.18511 13.2838 4.37509C13.2092 4.56508 13.1897 4.77413 13.2277 4.97582C13.2657 5.1775 13.3596 5.36276 13.4975 5.50817C13.6354 5.65358 13.8111 5.7526 14.0024 5.79272C14.1937 5.83284 14.3919 5.81225 14.5721 5.73355C14.7522 5.65486 14.9062 5.5216 15.0146 5.35061C15.1229 5.17963 15.1807 4.97861 15.1807 4.77298C15.1809 4.63635 15.1555 4.50103 15.106 4.37477C15.0565 4.2485 14.9839 4.13376 14.8923 4.0371C14.8007 3.94044 14.692 3.86376 14.5723 3.81145C14.4526 3.75913 14.3243 3.7322 14.1947 3.7322V3.73325ZM9.26475 5.11885C8.35496 5.11885 7.46559 5.40333 6.70913 5.93633C5.95266 6.46932 5.36307 7.22688 5.0149 8.11322C4.66674 8.99956 4.57565 9.97486 4.75314 10.9158C4.93063 11.8567 5.36874 12.721 6.01206 13.3994C6.65538 14.0778 7.47502 14.5397 8.36733 14.7269C9.25965 14.9141 10.1846 14.818 11.0251 14.4509C11.8656 14.0837 12.5841 13.462 13.0895 12.6643C13.595 11.8667 13.8647 10.9288 13.8647 9.96947C13.8621 8.68386 13.3766 7.45171 12.5145 6.54264C11.6524 5.63357 10.4839 5.12163 9.26475 5.11885ZM9.26475 6.50549C9.91486 6.50549 10.5504 6.70878 11.0909 7.08964C11.6315 7.47049 12.0528 8.01182 12.3015 8.64517C12.5503 9.27851 12.6154 9.97543 12.4886 10.6478C12.3618 11.3201 12.0487 11.9377 11.589 12.4225C11.1293 12.9072 10.5436 13.2373 9.90601 13.3711C9.2684 13.5048 8.60749 13.4362 8.00687 13.1738C7.40625 12.9115 6.89289 12.4672 6.53171 11.8972C6.17053 11.3272 5.97775 10.6571 5.97775 9.97158C5.97643 9.51602 6.06055 9.06468 6.22527 8.64352C6.38999 8.22237 6.63206 7.83972 6.93755 7.51758C7.24304 7.19545 7.60592 6.94019 8.00531 6.7665C8.4047 6.5928 8.83272 6.5041 9.26475 6.50549Z" fill="white"/>
</svg>
