<svg width="65" height="64" viewBox="0 0 65 64" fill="none" xmlns="http://www.w3.org/2000/svg">
<g clip-path="url(#clip0_1147_586)">
<path d="M60.125 0H48.125V2.66667H60.125C60.4786 2.66667 60.8178 2.80714 61.0678 3.05719C61.3179 3.30724 61.4583 3.64638 61.4583 4V36H2.79167V4C2.79167 3.64638 2.93214 3.30724 3.18219 3.05719C3.43224 2.80714 3.77138 2.66667 4.125 2.66667H9.45833V0H4.125C3.06413 0 2.04672 0.421427 1.29657 1.17157C0.546427 1.92172 0.125 2.93913 0.125 4L0.125 46.6667C0.125 47.7275 0.546427 48.7449 1.29657 49.4951C2.04672 50.2452 3.06413 50.6667 4.125 50.6667H21.4583V56.3733L18.365 57.4C18.1002 57.4894 17.8702 57.6599 17.7075 57.8872C17.5448 58.1145 17.4576 58.3871 17.4583 58.6667V61.3333H14.7917V64H49.4583V61.3333H46.7917V58.6667C46.7924 58.3871 46.7052 58.1145 46.5425 57.8872C46.3799 57.6599 46.1498 57.4894 45.885 57.4L42.7917 56.3733V50.6667H60.125C61.1859 50.6667 62.2033 50.2452 62.9534 49.4951C63.7036 48.7449 64.125 47.7275 64.125 46.6667V4C64.125 2.93913 63.7036 1.92172 62.9534 1.17157C62.2033 0.421427 61.1859 0 60.125 0V0ZM44.125 59.6267V61.3333H20.125V59.6267L23.005 58.6667H37.4583V56H24.125V50.6667H40.125V57.3333C40.1243 57.6129 40.2114 57.8855 40.3741 58.1128C40.5368 58.3401 40.7668 58.5106 41.0317 58.6L44.125 59.6267ZM61.4583 46.6667C61.4583 47.0203 61.3179 47.3594 61.0678 47.6095C60.8178 47.8595 60.4786 48 60.125 48H4.125C3.77138 48 3.43224 47.8595 3.18219 47.6095C2.93214 47.3594 2.79167 47.0203 2.79167 46.6667V38.6667H61.4583V46.6667Z" fill="#2CB7B3"/>
<path d="M53.4596 26.6667H50.793V10.6667C50.794 10.4912 50.7603 10.3173 50.694 10.1548C50.6276 9.99236 50.5299 9.84461 50.4063 9.72002L41.073 0.386689C40.9484 0.263114 40.8006 0.165347 40.6382 0.098994C40.4757 0.0326412 40.3018 -0.000992238 40.1263 2.22857e-05H17.4596C16.3988 2.22857e-05 15.3814 0.42145 14.6312 1.17159C13.8811 1.92174 13.4596 2.93916 13.4596 4.00002V26.6667H10.793V29.3334H53.4596V26.6667ZM41.4596 4.54669L46.2463 9.33335H42.793C42.4393 9.33335 42.1002 9.19288 41.8502 8.94283C41.6001 8.69278 41.4596 8.35364 41.4596 8.00002V4.54669ZM48.1263 26.6667H16.1263V4.00002C16.1263 3.6464 16.2668 3.30726 16.5168 3.05721C16.7669 2.80716 17.106 2.66669 17.4596 2.66669H38.793V8.00002C38.793 9.06089 39.2144 10.0783 39.9645 10.8285C40.7147 11.5786 41.7321 12 42.793 12H48.1263V26.6667Z" fill="#2CB7B3"/>
<path d="M41.4596 14.667H22.793V17.3337H41.4596V14.667Z" fill="#2CB7B3"/>
<path d="M34.793 20H22.793V22.6667H34.793V20Z" fill="#2CB7B3"/>
</g>
<defs>
<clipPath id="clip0_1147_586">
<rect width="64" height="64" fill="white" transform="translate(0.125)"/>
</clipPath>
</defs>
</svg>
