<svg width="18" height="16" viewBox="0 0 18 16" fill="none" xmlns="http://www.w3.org/2000/svg">
<path d="M16 4.18386C16.721 3.63895 17.3419 2.96001 17.832 2.18034C17.161 2.48859 16.4514 2.6935 15.725 2.78878C16.4904 2.31022 17.0628 1.55239 17.334 0.658723C16.6174 1.1067 15.8334 1.42231 15.016 1.59194C14.5147 1.02768 13.864 0.635421 13.1485 0.466114C12.4331 0.296807 11.6858 0.358277 11.0039 0.642539C10.322 0.926801 9.73691 1.42072 9.32463 2.06014C8.91234 2.69956 8.69193 3.45494 8.692 4.22815C8.6892 4.52372 8.71771 4.8187 8.777 5.10759C7.32273 5.0321 5.89993 4.63394 4.60153 3.9391C3.30313 3.24427 2.15836 2.2684 1.242 1.07524C0.771901 1.92302 0.626345 2.92802 0.835043 3.88511C1.04374 4.8422 1.59096 5.67923 2.365 6.22535C1.78624 6.20899 1.21967 6.04625 0.713 5.75083V5.79301C0.713887 6.68331 1.00562 7.54611 1.53909 8.23617C2.07256 8.92624 2.8152 9.40143 3.642 9.58177C3.3291 9.66876 3.00658 9.71132 2.683 9.70831C2.45077 9.71284 2.21876 9.69092 1.991 9.64293C2.22711 10.4085 2.68249 11.0781 3.29443 11.5595C3.90638 12.0408 4.64479 12.3103 5.408 12.3308C4.11372 13.3976 2.51778 13.9764 0.875 13.9748C0.582591 13.9771 0.290337 13.9598 0 13.9231C1.67213 15.0585 3.62021 15.6591 5.609 15.6524C7.01766 15.6625 8.41341 15.3688 9.71052 14.7894C11.0076 14.21 12.1787 13.3571 13.1518 12.283C14.125 11.209 14.8796 9.93648 15.3694 8.5437C15.8592 7.15093 16.0738 5.66728 16 4.18386Z" fill="white"/>
</svg>
